<svg width="480" height="320" viewBox="0 0 480 320" fill="none" xmlns="http://www.w3.org/2000/svg">
  <rect width="480" height="320" rx="24" fill="#F8FAF8"/>
  <rect x="64" y="54" width="108" height="214" rx="16" fill="#FFFFFF" stroke="#DEE7E0"/>
  <rect x="186" y="54" width="108" height="214" rx="16" fill="#FFFFFF" stroke="#DEE7E0"/>
  <rect x="308" y="54" width="108" height="214" rx="16" fill="#FFFFFF" stroke="#DEE7E0"/>
  <rect x="82" y="75" width="72" height="92" rx="14" fill="#E9EFEA"/>
  <rect x="204" y="75" width="72" height="92" rx="14" fill="#F2E5D7"/>
  <rect x="326" y="75" width="72" height="92" rx="14" fill="#E5F4E8"/>
  <rect x="82" y="188" width="70" height="10" rx="5" fill="#101815"/>
  <rect x="204" y="188" width="70" height="10" rx="5" fill="#101815"/>
  <rect x="326" y="188" width="70" height="10" rx="5" fill="#101815"/>
  <rect x="82" y="224" width="72" height="24" rx="8" fill="#20A147"/>
  <rect x="204" y="224" width="72" height="24" rx="8" fill="#20A147"/>
  <rect x="326" y="224" width="72" height="24" rx="8" fill="#20A147"/>
</svg>
