<svg width="160" height="160" viewBox="0 0 160 160" fill="none" xmlns="http://www.w3.org/2000/svg">
  <rect width="160" height="160" rx="80" fill="#EEF5F0"/>
  <path d="M39 154C44 119 59 101 80 101C101 101 116 119 121 154H39Z" fill="#1B2320"/>
  <path d="M58 124C64 113 71 108 80 108C89 108 96 113 102 124C91 130 69 130 58 124Z" fill="#F5F7F5"/>
  <path d="M54 65C54 43 64 30 81 30C98 30 107 43 107 65V78C107 96 96 109 81 109C65 109 54 96 54 78V65Z" fill="#A86F4F"/>
  <path d="M55 67C67 63 80 54 91 42C101 48 107 59 107 73V58C107 38 96 27 80 27C64 27 52 39 52 59V74C52 72 53 69 55 67Z" fill="#211815"/>
  <path d="M63 54C64 38 72 29 86 26C103 27 113 39 113 55C107 47 96 44 81 44C70 44 61 48 55 58C55 57 56 55 63 54Z" fill="#1D1513"/>
  <circle cx="68" cy="75" r="3" fill="#1A1110"/>
  <circle cx="94" cy="75" r="3" fill="#1A1110"/>
  <path d="M69 93C76 98 86 98 93 93" stroke="#5E2E25" stroke-width="3" stroke-linecap="round"/>
  <path d="M64 101C72 108 90 108 98 101C94 119 68 119 64 101Z" fill="#231917"/>
</svg>
